<?xml version="1.0" encoding="utf-8"?>
<!-- Generator: Adobe Illustrator 26.0.1, SVG Export Plug-In . SVG Version: 6.00 Build 0)  -->
<svg version="1.1" id="Layer_1" xmlns="http://www.w3.org/2000/svg" xmlns:xlink="http://www.w3.org/1999/xlink" x="0px" y="0px"
	 viewBox="0 0 448 512" style="enable-background:new 0 0 448 512;" xml:space="preserve">
<style type="text/css">
	.st0{fill:#EA9C00;}
</style>
<path d="M257.2,145.5C208.5,147.3,87.7,161,87.7,263c0,109.5,138.3,114,183.5,43.2c6.5,10.2,35.4,37.5,45.3,46.8l56.8-56
	c0,0-32.3-25.3-32.3-52.8V97.1c0-25.3-24.5-82.3-112.3-82.3c-88,0-134.7,55-134.7,104.3l73.5,6.8c16.3-49.5,54.2-49.5,54.2-49.5
	C262.4,76.3,257.2,106.2,257.2,145.5L257.2,145.5z M257.2,232.3c0,80-84.2,68-84.2,17.2c0-47.2,50.5-56.7,84.2-57.8V232.3z
	 M393.2,395.8c-7.7,10-70,67-174.5,67s-184.5-71.5-209-101c-6.8-7.7,1-11.3,5.5-8.3C88.5,398,203,471.3,387.7,383.8
	C395.2,380.1,401,385.8,393.2,395.8z M433,398c-6.5,15.8-16,26.8-21.2,31c-5.5,4.5-9.5,2.7-6.5-3.8s19.3-46.5,12.7-55
	c-6.5-8.3-37-4.3-48-3.2c-10.8,1-13,2-14-0.3c-2.3-5.7,21.7-15.5,37.5-17.5c15.7-1.8,41-0.8,46,5.7C443.2,360,439.5,382,433,398
	L433,398z"/>
<path class="st0" d="M393.2,395.8c-7.7,10-70,67-174.5,67s-184.5-71.5-209-101c-6.8-7.7,1-11.3,5.5-8.3
	C88.5,398,203,471.3,387.7,383.8C395.2,380.1,401,385.8,393.2,395.8z M433,398c-6.5,15.8-16,26.8-21.2,31c-5.5,4.5-9.5,2.7-6.5-3.8
	s19.3-46.5,12.7-55c-6.5-8.3-37-4.3-48-3.2c-10.8,1-13,2-14-0.3c-2.3-5.7,21.7-15.5,37.5-17.5c15.7-1.8,41-0.8,46,5.7
	C443.2,360,439.5,382,433,398L433,398z"/>
</svg>
