<?xml version="1.0" encoding="utf-8"?>
<!-- Generator: Adobe Illustrator 26.0.1, SVG Export Plug-In . SVG Version: 6.00 Build 0)  -->
<svg version="1.1" id="Layer_1" xmlns="http://www.w3.org/2000/svg" xmlns:xlink="http://www.w3.org/1999/xlink" x="0px" y="0px"
	 viewBox="0 0 488 512" style="enable-background:new 0 0 488 512;" xml:space="preserve">
<path d="M488,261.8C488,403.3,391.1,504,248,504C110.8,504,0,393.2,0,256c0-62,23.7-108,32.9-123.7C80,51.3,169.2,8.7,248,8
	c49.4-0.4,88.5,15.7,96.5,19.2c26,11.1,49.4,26.6,69.8,45.7l-67.5,64.9C258.5,52.6,94.3,116.6,94.3,256
	c0,86.5,69.1,156.6,153.7,156.6c98.2,0,135-70.4,140.8-106.9H248v-85.3h236.1C486.4,233.1,488,245.3,488,261.8L488,261.8z"/>
<path d="M56.7,148.5c7.6,2.5,15.9,5.6,24.7,9.4c8.7,3.8,16.5,7.8,23.5,11.7"/>
<path d="M21.5,74.1C196,188.4,196,188.4,196,188.4"/>
</svg>
