<?xml version="1.0" encoding="utf-8"?>
<!-- Generator: Adobe Illustrator 26.0.1, SVG Export Plug-In . SVG Version: 6.00 Build 0)  -->
<svg version="1.1" id="Layer_1" xmlns="http://www.w3.org/2000/svg" xmlns:xlink="http://www.w3.org/1999/xlink" x="0px" y="0px"
	 viewBox="0 0 448 512" style="enable-background:new 0 0 448 512;" xml:space="preserve">
<style type="text/css">
	.st0{fill:url(#SVGID_1_);stroke:#0000FF;stroke-miterlimit:10;}
	.st1{opacity:0.71;fill:url(#SVGID_00000101799886661787384460000013463460569828582317_);stroke:#0000FF;stroke-miterlimit:10;}
</style>
<linearGradient id="SVGID_1_" gradientUnits="userSpaceOnUse" x1="62.6402" y1="406.6598" x2="435.2905" y2="34.0095">
	<stop  offset="0" style="stop-color:#F3FA3F"/>
	<stop  offset="0.1816" style="stop-color:#EEB045"/>
	<stop  offset="0.4099" style="stop-color:#D57764"/>
	<stop  offset="0.6896" style="stop-color:#BA3787"/>
	<stop  offset="0.8941" style="stop-color:#A90F9D"/>
	<stop  offset="1" style="stop-color:#A200A5"/>
</linearGradient>
<path class="st0" d="M224.1,130.4c-63.6,0-114.9,51.3-114.9,114.9s51.3,114.9,114.9,114.9S339,308.9,339,245.3
	S287.7,130.4,224.1,130.4z M224.1,320c-41.1,0-74.7-33.5-74.7-74.7s33.5-74.7,74.7-74.7s74.7,33.5,74.7,74.7S265.2,320,224.1,320
	L224.1,320z M370.5,125.7c0,14.9-12,26.8-26.8,26.8c-14.9,0-26.8-12-26.8-26.8s12-26.8,26.8-26.8S370.5,110.9,370.5,125.7z
	 M446.6,152.9c-1.7-35.9-9.9-67.7-36.2-93.9c-26.2-26.2-58-34.4-93.9-36.2c-37-2.1-147.9-2.1-184.9,0C95.8,24.5,64,32.7,37.7,58.9
	s-34.4,58-36.2,93.9c-2.1,37-2.1,147.9,0,184.9c1.7,35.9,9.9,67.7,36.2,93.9s58,34.4,93.9,36.2c37,2.1,147.9,2.1,184.9,0
	c35.9-1.7,67.7-9.9,93.9-36.2c26.2-26.2,34.4-58,36.2-93.9C448.7,300.7,448.7,189.9,446.6,152.9L446.6,152.9z M398.8,377.4
	c-7.8,19.6-22.9,34.7-42.6,42.6c-29.5,11.7-99.5,9-132.1,9s-102.7,2.6-132.1-9c-19.6-7.8-34.7-22.9-42.6-42.6
	c-11.7-29.5-9-99.5-9-132.1s-2.6-102.7,9-132.1C57.2,93.6,72.3,78.5,92,70.6c29.5-11.7,99.5-9,132.1-9s102.7-2.6,132.1,9
	c19.6,7.8,34.7,22.9,42.6,42.6c11.7,29.5,9,99.5,9,132.1S410.5,348,398.8,377.4z"/>
<linearGradient id="SVGID_00000132768450020623360130000002966087860637800604_" gradientUnits="userSpaceOnUse" x1="131.1844" y1="86.4443" x2="379.1844" y2="510.4443">
	<stop  offset="0" style="stop-color:#152AFF"/>
	<stop  offset="4.848320e-02" style="stop-color:#2B23F1;stop-opacity:0.9152"/>
	<stop  offset="0.199" style="stop-color:#6B10C8;stop-opacity:0.6518"/>
	<stop  offset="0.3088" style="stop-color:#9305AF;stop-opacity:0.4595"/>
	<stop  offset="0.3657" style="stop-color:#A200A5;stop-opacity:0.36"/>
</linearGradient>
<path style="opacity:0.71;fill:url(#SVGID_00000132768450020623360130000002966087860637800604_);stroke:#0000FF;stroke-miterlimit:10;" d="
	M224.1,130.4c-63.6,0-114.9,51.3-114.9,114.9s51.3,114.9,114.9,114.9S339,308.9,339,245.3S287.8,130.4,224.1,130.4z M224.1,320
	c-41.1,0-74.7-33.5-74.7-74.7s33.5-74.7,74.7-74.7s74.7,33.5,74.7,74.7S265.2,320,224.1,320L224.1,320z M370.5,125.7
	c0,14.9-12,26.8-26.8,26.8c-14.9,0-26.8-12-26.8-26.8s12-26.8,26.8-26.8S370.5,110.9,370.5,125.7z M446.6,152.9
	c-1.7-35.9-9.9-67.7-36.2-93.9c-26.2-26.2-58-34.4-93.9-36.2c-37-2.1-147.9-2.1-184.9,0C95.8,24.5,64,32.7,37.7,58.9
	s-34.4,58-36.2,93.9c-2.1,37-2.1,147.9,0,184.9c1.7,35.9,9.9,67.7,36.2,93.9s58,34.4,93.9,36.2c37,2.1,147.9,2.1,184.9,0
	c35.9-1.7,67.7-9.9,93.9-36.2c26.2-26.2,34.4-58,36.2-93.9C448.8,300.7,448.8,189.9,446.6,152.9L446.6,152.9z M398.8,377.4
	c-7.8,19.6-22.9,34.7-42.6,42.6c-29.5,11.7-99.5,9-132.1,9s-102.7,2.6-132.1-9c-19.6-7.8-34.7-22.9-42.6-42.6
	c-11.7-29.5-9-99.5-9-132.1s-2.6-102.7,9-132.1C57.2,93.6,72.3,78.5,92,70.6c29.5-11.7,99.5-9,132.1-9s102.7-2.6,132.1,9
	c19.6,7.8,34.7,22.9,42.6,42.6c11.7,29.5,9,99.5,9,132.1S410.5,348,398.8,377.4z"/>
</svg>
