<?xml version="1.0" encoding="utf-8"?>
<!-- Generator: Adobe Illustrator 26.0.1, SVG Export Plug-In . SVG Version: 6.00 Build 0)  -->
<svg version="1.1" id="Layer_1" xmlns="http://www.w3.org/2000/svg" xmlns:xlink="http://www.w3.org/1999/xlink" x="0px" y="0px"
	 viewBox="0 0 512 512" style="enable-background:new 0 0 512 512;" xml:space="preserve">
<style type="text/css">
	.st0{fill:#FFEF00;}
</style>
<path d="M496.9,366.6c-3.4-9.2-9.8-14.1-17.1-18.2c-1.4-0.8-2.6-1.5-3.7-1.9c-2.2-1.1-4.4-2.2-6.6-3.4c-22.8-12.1-40.6-27.3-53-45.4
	c-3.5-5.1-6.5-10.5-9.1-16.1c-1.1-3-1-4.7-0.2-6.3c0.8-1.2,1.7-2.2,2.9-3c3.9-2.6,8-5.2,10.7-7c4.9-3.2,8.8-5.7,11.2-7.4
	c9.4-6.5,15.9-13.5,20-21.3c5.8-10.9,6.5-23.7,2.1-35.2c-6.2-16.3-21.6-26.4-40.3-26.4c-3.9,0-7.9,0.4-11.7,1.2
	c-1,0.2-2.1,0.5-3.1,0.7c0.2-11.2-0.1-22.9-1.1-34.5c-3.5-40.8-17.8-62.1-32.7-79.2c-9.5-10.7-20.7-19.7-33.2-26.7
	C309.5,23.5,283.9,17,256,17s-53.4,6.5-76,19.4c-12.5,7-23.7,16.1-33.3,26.8c-14.9,17-29.2,38.4-32.7,79.2
	c-1,11.6-1.2,23.4-1.1,34.5c-1-0.3-2-0.5-3.1-0.7c-3.9-0.8-7.8-1.2-11.7-1.2c-18.7,0-34.1,10.1-40.3,26.4c-4.5,11.5-3.7,24.3,2,35.2
	c4.1,7.8,10.7,14.7,20,21.3c2.5,1.7,6.4,4.2,11.2,7.4c2.6,1.7,6.5,4.2,10.3,6.7c1.3,0.9,2.4,2,3.3,3.3c0.8,1.6,0.8,3.4-0.4,6.6
	c-2.5,5.5-5.5,10.8-8.9,15.8c-12.1,17.7-29.4,32.6-51.4,44.6c-11.7,6.2-23.9,10.3-29,24.3c-3.9,10.5-1.3,22.5,8.5,32.6
	c3.6,3.8,7.8,6.9,12.4,9.4c9.6,5.3,19.8,9.3,30.3,12.1c2.2,0.6,4.3,1.5,6.1,2.7c3.6,3.1,3.1,7.9,7.8,14.8c2.4,3.6,5.4,6.7,9,9.1
	c10,6.9,21.3,7.4,33.2,7.8c10.8,0.4,23,0.9,36.9,5.5c5.8,1.9,11.8,5.6,18.7,9.9C194.8,481,217.7,495,256,495s61.3-14.1,78.1-24.4
	c6.9-4.2,12.9-7.9,18.5-9.8c13.9-4.6,26.2-5.1,36.9-5.5c11.9-0.5,23.2-0.9,33.2-7.8c4.2-2.9,7.7-6.7,10.2-11.2
	c3.4-5.8,3.3-9.9,6.6-12.8c1.8-1.2,3.7-2.1,5.8-2.6c10.7-2.8,21-6.9,30.8-12.3c4.9-2.6,9.3-6.1,13-10.2l0.1-0.1
	C498.4,388.5,500.7,376.9,496.9,366.6z"/>
<g id="XMLID_00000178163905262042446460000015709953736571029379_">
	<g>
		<path class="st0" d="M464.2,370.8c4.5,2.2,11.9,6.7-1.3,14.1c-20.7,11.5-34.5,10.2-45.3,17.1c-9.1,5.9-3.7,18.5-10.3,23.1
			c-8.1,5.6-32.2-0.4-63.2,9.9c-25.6,8.5-42,32.8-88,32.8c-46.1,0-62-24.3-88.1-32.9c-31-10.3-55.1-4.2-63.2-9.9
			c-6.6-4.6-1.2-17.2-10.3-23.1c-10.7-6.9-24.5-5.7-45.3-17.1c-13.2-7.3-5.7-11.8-1.3-13.9c75.1-36.4,87.1-92.5,87.7-96.7
			c0.6-5,1.4-9-4.2-14.1c-5.4-5-29.2-19.7-35.8-24.3c-10.9-7.6-15.8-15.3-12.2-24.6c2.5-6.5,8.5-8.9,14.9-8.9c2,0,4,0.2,6,0.7
			c12,2.6,23.7,8.6,30.4,10.2c0.8,0.2,1.6,0.3,2.5,0.3c3.6,0,4.9-1.8,4.6-5.9c-0.8-13.1-2.6-38.7-0.6-62.6
			c2.8-32.9,13.4-49.2,26-63.6c6.1-6.9,34.5-37,88.9-37c54.4,0,82.9,29.9,88.9,36.8c12.6,14.4,23.2,30.7,26,63.6
			c2.1,23.9,0.3,49.5-0.6,62.6c-0.3,4.3,1,5.9,4.6,5.9c0.8,0,1.7-0.1,2.5-0.3c6.8-1.6,18.4-7.6,30.4-10.2c2-0.4,4-0.7,6-0.7
			c6.4,0,12.4,2.5,14.9,8.9c3.5,9.4-1.2,17-12.2,24.6c-6.6,4.6-30.4,19.3-35.8,24.3c-5.6,5.1-4.8,9.1-4.2,14.1
			C377,278.3,389,334.5,464.2,370.8z"/>
	</g>
	<g>
	</g>
</g>
</svg>
