<?xml version="1.0" encoding="utf-8"?>
<!-- Generator: Adobe Illustrator 26.0.1, SVG Export Plug-In . SVG Version: 6.00 Build 0)  -->
<svg version="1.1" xmlns="http://www.w3.org/2000/svg" xmlns:xlink="http://www.w3.org/1999/xlink" x="0px" y="0px"
	 viewBox="0 0 567.1 600.2" style="enable-background:new 0 0 567.1 600.2;" xml:space="preserve">
<style type="text/css">
	.st0{fill:#FF0A1F;}
	.st1{fill:#22DDFF;}
</style>
<g id="Layer_3">
	<path class="st0" d="M524.3,254.7c-49,0.1-96.9-13.4-136.7-38.7v176.2c0,88.5-81.1,160.3-181.1,160.2c-100,0-181-71.8-180.9-160.3
		s81.1-160.3,181.1-160.2c8.3,0,16.6,0.5,24.8,1.5V322c-43.8-12.2-90.4,9.3-104.2,48.1s10.6,80.1,54.3,92.3s90.4-9.3,104.2-48.1
		c2.5-7.1,3.8-14.6,3.8-22.1V47.7h98c-0.1,7.3,0.6,14.6,2.1,21.9l0,0c6.9,32.6,28.6,61.2,60,79.1c22.1,13,48.1,19.9,74.6,19.9V254.7
		z"/>
</g>
<g id="Layer_1">
	<path class="st1" d="M342.5,410.9c1.4-0.3,2.8-0.1,3.9,0.8c0,0,0,0,0,0c0.7-2.6,1.4-5.6,1.7-8.6c-1.9,2.5-3.8,5.1-5.6,7.7
		C342.5,410.8,342.5,410.8,342.5,410.9z"/>
	<path class="st1" d="M354.3,374.6v-0.3c-1.1,3.1-2.1,6-3.5,8.9C352.4,380.5,353.7,377.6,354.3,374.6z"/>
	<path class="st1" d="M349.9,239.6c-1.3,3.9-2.6,7.9-3.6,11.9c0.7-1.5,1.3-2.9,2.1-4.4c0.5-1.1,1.3-1.8,2.1-2.2
		c0.5-2.4,0.6-4.7,0.4-7.1C350.6,238.4,350.2,239,349.9,239.6z"/>
	<path class="st1" d="M405.6,123.1C377,104.2,357.3,74,351.1,39.7c-1.3-7.6-1.9-15.3-1.9-23.1h-89.1v363.5c0,7.9-1.2,15.8-3.5,23.3
		c-12.5,40.9-54.9,63.6-94.7,50.8c-39.8-12.9-61.9-56.5-49.4-97.4c12.5-40.9,54.9-63.6,94.7-50.8v-93.5c-7.5-1.1-15-1.6-22.5-1.6
		c-90.9,0-164.5,75.7-164.6,169.1c0,93.4,73.6,169.2,164.4,169.2c17.6,0,34.5-2.8,50.4-8.1c-0.7-2-0.3-4.5,1.9-5.9
		c13.5-8.7,27-17.5,40.1-27c9.6-7,19.1-14.4,28-22.5c1.2-2.5,2.5-5,4-7.3c6-9.9,12-19.8,17.5-30.1c3.7-6.8,7.3-13.9,10.3-21.2
		c-2.3,0.4-4.9-1-5.2-3.6c-0.1-0.7-0.2-1.5-0.3-2.2c-5.3,7.6-11,14.8-17.8,20.9c-3.6,3.2-8.5,0.2-7.6-4.9c2.6-15.1,8-31.9,20.4-40.6
		c1.7-1.2,4.2-0.8,5.5,0.8c0.9,1.1,1.7,2.2,2.5,3.3c0.2-0.3,0.4-0.6,0.6-0.9c-0.1-0.4-0.1-0.8-0.1-1.2c0-3.5,0.3-6.8,0.9-10.2
		c-1.1-1.5-1.4-3.6-0.2-5.3c0.2-0.3,0.5-0.7,0.7-1.1c-1.2-1.1-1.8-2.8-1.1-4.8c1.4-4.1,3.1-8.1,4.6-12.2c0-0.1-0.1-0.2-0.1-0.3
		c-1.2,2.4-2.6,4.8-4.4,6.9c-0.6,0.8-1.4,1.2-2.1,1.4c-0.5,0.8-1,1.5-1.5,2.3c-3,4.5-9.6,1.9-8.4-3.9c1-4.5,1.9-8.7,3.7-12.9
		c1-2.2,2.9-2.8,4.7-2.3c0.4-0.8,0.8-1.6,1.1-2.4c-0.5-0.5-0.8-1.2-0.9-2c0-0.1,0-0.2,0-0.2c-0.3,0.1-0.5,0.1-0.8,0.2
		c-4.8,1.2-8.4-6.6-3.5-9.1c1.5-0.8,3-1.5,4.6-2.1c0.6-2.7,1.5-5.3,2.6-7.9c0.1-6.2,0.6-12.3,1.4-18.5c-1.9,0.4-4.1-0.6-5-2.6
		c-1.8,0-3.7-1-4.6-3.3c-4.7-12.3-3.6-27.6,2.6-39.1c0.4-0.7,0.9-1.2,1.4-1.6c0.4-6.5,1.5-12.8,3-19.1c-2.8,0.3-5.4-2.6-4.9-6.3
		c1.4-10.1,5.6-19.4,10.1-28.2c1.4-2.7,3.7-3,5.6-2c0.1-0.5,0.3-1,0.4-1.5c0.7-2.6,2.8-3.7,4.8-3.5v-13
		c36.2,26.7,79.7,40.9,124.2,40.8v-90.9C449.3,144.1,425.7,136.8,405.6,123.1z"/>
	<path class="st1" d="M354,308.7c-0.1,3.2-0.3,6.5-0.6,9.7c0.3,0.2,0.6,0.4,0.8,0.7v-11.3C354.2,308,354.1,308.4,354,308.7z"/>
	<path class="st1" d="M321.5,421.9c3.5-4,6.7-8.2,9.9-12.4c-0.2-0.5-0.5-0.9-0.8-1.4C326.6,411.7,323.6,416.6,321.5,421.9z"/>
</g>
<g id="Layer_2">
	<path d="M481.7,254.1c-44,0.1-87-13.6-122.8-39.2v178.7c0,89.8-72.8,162.5-162.6,162.5S33.8,483.2,33.8,393.4
		c0-89.8,72.8-162.5,162.6-162.5c7.4,0,14.9,0.5,22.3,1.5v89.9c-39.3-12.4-81.2,9.5-93.6,48.8s9.5,81.2,48.8,93.6
		s81.2-9.5,93.6-48.8c2.3-7.2,3.4-14.8,3.4-22.4V44.2h88c-0.1,7.4,0.6,14.9,1.9,22.2l0,0c6.2,33,25.7,62,53.9,80.2
		c19.9,13.1,43.2,20.1,67,20.1V254.1z"/>
</g>
</svg>
