<?xml version="1.0" encoding="utf-8"?>
<!-- Generator: Adobe Illustrator 26.0.1, SVG Export Plug-In . SVG Version: 6.00 Build 0)  -->
<svg version="1.1" id="Layer_1" xmlns="http://www.w3.org/2000/svg" xmlns:xlink="http://www.w3.org/1999/xlink" x="0px" y="0px"
	 viewBox="0 0 448 512" style="enable-background:new 0 0 448 512;" xml:space="preserve">
<style type="text/css">
	.st0{fill:#22CCFF;}
</style>
<path class="st0" d="M380.9,102.5c-28.2-18.2-47.7-47.2-53.9-80.2c-1.3-7.3-1.9-14.7-1.9-22.2h-88v314.9c2.1-0.8,4.6-0.8,7.2,0.1
	c1.8,0.6,3.2,1.6,4.3,2.7c0.6-1.2,1.3-2.3,2-3.4c2.2-3.5,8.1-3.2,9.1,1.2c4.1,17,4.6,34.9,0.7,51.9c1.6,0.6,2.7,2.1,2.5,4.4
	c-1.8,15.8-4.8,32.1-14.4,45.1c-8.6,11.6-21,18.9-34.1,24.5c-19.6,8.3-41.1,14.6-62.6,13.5c-10-0.5-21.2-5.7-29.2-11.5
	c-2.4-1.8-5.1-4-6.3-6.9c-6.5-3.6-12-8.8-12.3-16.7c-0.1-2.9,2.4-4.8,5-5c0.6,0,1.2-0.1,1.8,0c-7.2-6.9-13.1-15-17.2-24.4
	c-1.2-2.7,0.2-5.8,2.4-7.1c-8.6-16.8-10.8-36.8-4.7-56.3c12.4-39.3,54.3-61.2,93.6-48.8v-89.9c-7.4-1-14.8-1.5-22.3-1.5
	c-89.8,0-162.6,72.7-162.6,162.5s72.7,162.6,162.5,162.6s162.6-72.7,162.6-162.5V170.7c35.8,25.6,78.7,39.4,122.8,39.2v-87.4
	C424.1,122.6,400.8,115.6,380.9,102.5z"/>
<path class="st0" d="M238.1,414.1c1-1.1,2-2.3,2.9-3.6c-1,0.9-2,1.8-2.9,2.6C238.1,413.5,238.1,413.8,238.1,414.1z"/>
</svg>
